<mxfile host="app.diagrams.net" modified="2023-08-20T04:48:33.618Z" agent="Mozilla/5.0 (Windows NT 10.0; Win64; x64) AppleWebKit/537.36 (KHTML, like Gecko) Chrome/116.0.0.0 Safari/537.36" etag="sAzdOs0jg7AkYpQ4oWgM" version="21.6.8" type="github">
  <diagram name="第 1 页" id="f8dkQKOIMu-K8jdbNGlX">
    <mxGraphModel dx="1434" dy="750" grid="1" gridSize="10" guides="1" tooltips="1" connect="1" arrows="1" fold="1" page="1" pageScale="1" pageWidth="827" pageHeight="1169" math="0" shadow="0">
      <root>
        <mxCell id="0" />
        <mxCell id="1" parent="0" />
        <mxCell id="NRS_0xumGWJyXcZnUN_B-35" value="" style="rounded=0;whiteSpace=wrap;html=1;dashed=1;" vertex="1" parent="1">
          <mxGeometry x="118" y="620" width="582" height="100" as="geometry" />
        </mxCell>
        <mxCell id="NRS_0xumGWJyXcZnUN_B-34" value="" style="rounded=0;whiteSpace=wrap;html=1;dashed=1;" vertex="1" parent="1">
          <mxGeometry x="118" y="490" width="582" height="110" as="geometry" />
        </mxCell>
        <mxCell id="NRS_0xumGWJyXcZnUN_B-33" value="" style="rounded=0;whiteSpace=wrap;html=1;dashed=1;" vertex="1" parent="1">
          <mxGeometry x="720" y="230" width="160" height="490" as="geometry" />
        </mxCell>
        <mxCell id="NRS_0xumGWJyXcZnUN_B-32" value="" style="rounded=0;whiteSpace=wrap;html=1;dashed=1;" vertex="1" parent="1">
          <mxGeometry x="414" y="230" width="286.5" height="160" as="geometry" />
        </mxCell>
        <mxCell id="NRS_0xumGWJyXcZnUN_B-31" value="" style="rounded=0;whiteSpace=wrap;html=1;dashed=1;" vertex="1" parent="1">
          <mxGeometry x="118" y="230" width="282" height="160" as="geometry" />
        </mxCell>
        <mxCell id="NRS_0xumGWJyXcZnUN_B-1" value="&lt;font style=&quot;font-size: 13px;&quot;&gt;小说图书订单&lt;/font&gt;" style="rounded=0;whiteSpace=wrap;html=1;fillColor=#d5e8d4;strokeColor=#82b366;" vertex="1" parent="1">
          <mxGeometry x="150" y="270" width="90" height="40" as="geometry" />
        </mxCell>
        <mxCell id="NRS_0xumGWJyXcZnUN_B-3" value="&lt;font style=&quot;font-size: 13px;&quot;&gt;听书订单&lt;/font&gt;" style="rounded=0;whiteSpace=wrap;html=1;fillColor=#d5e8d4;strokeColor=#82b366;" vertex="1" parent="1">
          <mxGeometry x="270" y="270" width="90" height="40" as="geometry" />
        </mxCell>
        <mxCell id="NRS_0xumGWJyXcZnUN_B-4" value="&lt;font style=&quot;font-size: 13px;&quot;&gt;VIP订单&lt;/font&gt;" style="rounded=0;whiteSpace=wrap;html=1;fillColor=#d5e8d4;strokeColor=#82b366;" vertex="1" parent="1">
          <mxGeometry x="270" y="330" width="90" height="40" as="geometry" />
        </mxCell>
        <mxCell id="NRS_0xumGWJyXcZnUN_B-5" value="&lt;font style=&quot;font-size: 13px;&quot;&gt;书币书豆订单&lt;/font&gt;" style="rounded=0;whiteSpace=wrap;html=1;fillColor=#d5e8d4;strokeColor=#82b366;" vertex="1" parent="1">
          <mxGeometry x="150" y="330" width="90" height="40" as="geometry" />
        </mxCell>
        <mxCell id="NRS_0xumGWJyXcZnUN_B-13" value="&lt;font style=&quot;font-size: 14px;&quot;&gt;定时任务&lt;/font&gt;" style="shape=process;whiteSpace=wrap;html=1;backgroundOutline=1;fillColor=#fff2cc;strokeColor=#d6b656;" vertex="1" parent="1">
          <mxGeometry x="190" y="410" width="120" height="60" as="geometry" />
        </mxCell>
        <mxCell id="NRS_0xumGWJyXcZnUN_B-14" value="&lt;font style=&quot;font-size: 14px;&quot;&gt;实时写入&lt;/font&gt;" style="shape=process;whiteSpace=wrap;html=1;backgroundOutline=1;fillColor=#fff2cc;strokeColor=#d6b656;" vertex="1" parent="1">
          <mxGeometry x="496.75" y="410" width="120" height="60" as="geometry" />
        </mxCell>
        <mxCell id="NRS_0xumGWJyXcZnUN_B-15" value="&lt;font style=&quot;font-size: 13px;&quot;&gt;图书信息&lt;/font&gt;" style="rounded=0;whiteSpace=wrap;html=1;fillColor=#d5e8d4;strokeColor=#82b366;" vertex="1" parent="1">
          <mxGeometry x="440" y="270" width="100" height="40" as="geometry" />
        </mxCell>
        <mxCell id="NRS_0xumGWJyXcZnUN_B-16" value="&lt;font style=&quot;font-size: 13px;&quot;&gt;版权方信息&lt;/font&gt;" style="rounded=0;whiteSpace=wrap;html=1;fillColor=#d5e8d4;strokeColor=#82b366;" vertex="1" parent="1">
          <mxGeometry x="440" y="330" width="100" height="40" as="geometry" />
        </mxCell>
        <mxCell id="NRS_0xumGWJyXcZnUN_B-17" value="&lt;font style=&quot;font-size: 13px;&quot;&gt;小说信息&lt;/font&gt;" style="rounded=0;whiteSpace=wrap;html=1;fillColor=#d5e8d4;strokeColor=#82b366;" vertex="1" parent="1">
          <mxGeometry x="570" y="270" width="100" height="40" as="geometry" />
        </mxCell>
        <mxCell id="NRS_0xumGWJyXcZnUN_B-18" value="&lt;font style=&quot;font-size: 13px;&quot;&gt;听书信息&lt;/font&gt;" style="rounded=0;whiteSpace=wrap;html=1;fillColor=#d5e8d4;strokeColor=#82b366;" vertex="1" parent="1">
          <mxGeometry x="570" y="330" width="100" height="40" as="geometry" />
        </mxCell>
        <mxCell id="NRS_0xumGWJyXcZnUN_B-21" value="&lt;font style=&quot;font-size: 14px;&quot;&gt;Hive&lt;/font&gt;" style="shape=dataStorage;whiteSpace=wrap;html=1;fixedSize=1;fillColor=#dae8fc;strokeColor=#6c8ebf;" vertex="1" parent="1">
          <mxGeometry x="194" y="505" width="100" height="80" as="geometry" />
        </mxCell>
        <mxCell id="NRS_0xumGWJyXcZnUN_B-22" value="&lt;font style=&quot;font-size: 14px;&quot;&gt;MySQL&lt;/font&gt;" style="shape=dataStorage;whiteSpace=wrap;html=1;fixedSize=1;fillColor=#dae8fc;strokeColor=#6c8ebf;" vertex="1" parent="1">
          <mxGeometry x="506.75" y="505" width="100" height="80" as="geometry" />
        </mxCell>
        <mxCell id="NRS_0xumGWJyXcZnUN_B-23" value="&lt;font style=&quot;font-size: 14px;&quot;&gt;日结&lt;/font&gt;" style="rounded=0;whiteSpace=wrap;html=1;fillColor=#f8cecc;strokeColor=#b85450;" vertex="1" parent="1">
          <mxGeometry x="280" y="660" width="110" height="40" as="geometry" />
        </mxCell>
        <mxCell id="NRS_0xumGWJyXcZnUN_B-24" value="&lt;font style=&quot;font-size: 14px;&quot;&gt;月结&lt;/font&gt;" style="rounded=0;whiteSpace=wrap;html=1;fillColor=#f8cecc;strokeColor=#b85450;" vertex="1" parent="1">
          <mxGeometry x="440" y="660" width="100" height="40" as="geometry" />
        </mxCell>
        <mxCell id="NRS_0xumGWJyXcZnUN_B-25" value="&lt;font style=&quot;font-size: 14px;&quot;&gt;CP提现&lt;/font&gt;" style="rounded=0;whiteSpace=wrap;html=1;fillColor=#f8cecc;strokeColor=#b85450;" vertex="1" parent="1">
          <mxGeometry x="570" y="660" width="100" height="40" as="geometry" />
        </mxCell>
        <mxCell id="NRS_0xumGWJyXcZnUN_B-26" value="&lt;font style=&quot;font-size: 14px;&quot;&gt;订单处理&lt;/font&gt;" style="rounded=0;whiteSpace=wrap;html=1;fillColor=#f8cecc;strokeColor=#b85450;" vertex="1" parent="1">
          <mxGeometry x="148.5" y="660" width="93" height="40" as="geometry" />
        </mxCell>
        <mxCell id="NRS_0xumGWJyXcZnUN_B-27" value="&lt;font style=&quot;font-size: 14px;&quot;&gt;微信支付&lt;/font&gt;" style="rounded=0;whiteSpace=wrap;html=1;fillColor=#e1d5e7;strokeColor=#9673a6;" vertex="1" parent="1">
          <mxGeometry x="740" y="290" width="120" height="60" as="geometry" />
        </mxCell>
        <mxCell id="NRS_0xumGWJyXcZnUN_B-28" value="&lt;font style=&quot;font-size: 14px;&quot;&gt;支付宝支付&lt;/font&gt;" style="rounded=0;whiteSpace=wrap;html=1;fillColor=#e1d5e7;strokeColor=#9673a6;" vertex="1" parent="1">
          <mxGeometry x="740" y="400" width="120" height="60" as="geometry" />
        </mxCell>
        <mxCell id="NRS_0xumGWJyXcZnUN_B-29" value="&lt;font style=&quot;font-size: 14px;&quot;&gt;小米支付&lt;/font&gt;" style="rounded=0;whiteSpace=wrap;html=1;fillColor=#e1d5e7;strokeColor=#9673a6;" vertex="1" parent="1">
          <mxGeometry x="740" y="515" width="120" height="60" as="geometry" />
        </mxCell>
        <mxCell id="NRS_0xumGWJyXcZnUN_B-30" value="&lt;font style=&quot;font-size: 14px;&quot;&gt;苹果支付&lt;/font&gt;" style="rounded=0;whiteSpace=wrap;html=1;fillColor=#e1d5e7;strokeColor=#9673a6;" vertex="1" parent="1">
          <mxGeometry x="740" y="630" width="120" height="60" as="geometry" />
        </mxCell>
        <mxCell id="NRS_0xumGWJyXcZnUN_B-36" value="&lt;font style=&quot;font-size: 14px;&quot;&gt;&lt;b&gt;交易系统&lt;/b&gt;&lt;/font&gt;" style="text;html=1;align=center;verticalAlign=middle;resizable=0;points=[];autosize=1;strokeColor=none;fillColor=none;" vertex="1" parent="1">
          <mxGeometry x="118" y="230" width="80" height="30" as="geometry" />
        </mxCell>
        <mxCell id="NRS_0xumGWJyXcZnUN_B-37" value="&lt;font style=&quot;font-size: 14px;&quot;&gt;&lt;b&gt;内容库&lt;/b&gt;&lt;/font&gt;" style="text;html=1;align=center;verticalAlign=middle;resizable=0;points=[];autosize=1;strokeColor=none;fillColor=none;" vertex="1" parent="1">
          <mxGeometry x="414" y="230" width="70" height="30" as="geometry" />
        </mxCell>
        <mxCell id="NRS_0xumGWJyXcZnUN_B-38" value="&lt;font style=&quot;font-size: 14px;&quot;&gt;&lt;b&gt;支付系统&lt;/b&gt;&lt;/font&gt;" style="text;html=1;align=center;verticalAlign=middle;resizable=0;points=[];autosize=1;strokeColor=none;fillColor=none;" vertex="1" parent="1">
          <mxGeometry x="720" y="230" width="80" height="30" as="geometry" />
        </mxCell>
        <mxCell id="NRS_0xumGWJyXcZnUN_B-39" value="&lt;font style=&quot;font-size: 14px;&quot;&gt;&lt;b&gt;结算系统&lt;/b&gt;&lt;/font&gt;" style="text;html=1;align=center;verticalAlign=middle;resizable=0;points=[];autosize=1;strokeColor=none;fillColor=none;" vertex="1" parent="1">
          <mxGeometry x="118" y="620" width="80" height="30" as="geometry" />
        </mxCell>
      </root>
    </mxGraphModel>
  </diagram>
</mxfile>
